<svg xmlns="http://www.w3.org/2000/svg" viewBox="0 0 24 24"><rect width="24" height="24" rx="5" fill="#0969da"/><path fill="none" stroke="#fff" stroke-linecap="round" stroke-linejoin="round" stroke-width="2" d="M11.562 4.266a.5.5 0 0 1 .876 0L15.39 9.87a1 1 0 0 0 1.516.294L21.183 6.5a.5.5 0 0 1 .798.519l-2.834 10.246a1 1 0 0 1-.956.734H5.81a1 1 0 0 1-.957-.734L2.02 7.02a.5.5 0 0 1 .798-.519l4.276 3.664a1 1 0 0 0 1.516-.294zM5 21h14" transform="translate(0 -1) scale(0.9) translate(1.3 1.3)"/></svg>
